# Blender v2.81 (sub 16) OBJ File: ''
# www.blender.org
mtllib glass good.mtl
o Cube_Cube.001
v -0.478909 -0.297948 0.477668
v -0.478909 -0.297948 -0.169891
v 0.168650 -0.297948 0.477668
v 0.168650 -0.297948 -0.169891
v -0.223316 0.265200 -0.010730
v -0.478909 -0.052072 -0.169891
v -0.319747 0.265200 0.085701
v -0.387644 -0.047135 0.183852
v -0.319747 0.265200 0.222075
v -0.478909 -0.051370 0.477668
v -0.223316 0.265200 0.318505
v -0.086942 0.265200 0.318505
v 0.168650 -0.053075 0.477668
v 0.009488 0.265200 0.222075
v 0.090391 -0.050547 0.153888
v 0.009488 0.265200 0.085701
v 0.168650 -0.051487 -0.169891
v -0.086943 0.265200 -0.010730
v -0.155129 -0.058000 0.391870
v -0.155129 -0.040938 -0.098986
v -0.185094 0.295074 0.003248
v -0.155129 0.295074 0.000296
v -0.213906 0.295074 0.011988
v -0.240460 0.295074 0.026181
v -0.263735 0.295074 0.045282
v -0.282836 0.295074 0.068557
v -0.297029 0.295074 0.095111
v -0.305770 0.295074 0.123924
v -0.308721 0.295074 0.153888
v -0.305770 0.295074 0.183852
v -0.297029 0.295074 0.212665
v -0.282836 0.295074 0.239219
v -0.263735 0.295074 0.262494
v -0.240460 0.295074 0.281595
v -0.213906 0.295074 0.295788
v -0.185094 0.295074 0.304528
v -0.155129 0.295074 0.307480
v -0.125165 0.295074 0.304528
v -0.096352 0.295074 0.295788
v -0.069798 0.295074 0.281595
v -0.046524 0.295074 0.262494
v -0.027423 0.295074 0.239219
v -0.013229 0.295074 0.212665
v -0.004489 0.295074 0.183852
v -0.001538 0.295074 0.153888
v -0.004489 0.295074 0.123924
v -0.013229 0.295074 0.095111
v -0.027423 0.295074 0.068557
v -0.046524 0.295074 0.045282
v -0.069799 0.295074 0.026181
v -0.096353 0.295074 0.011988
v -0.125165 0.295074 0.003248
v 0.168650 -0.051356 -0.169891
v -0.478909 -0.051356 -0.169891
v -0.478909 -0.051356 0.477668
v 0.168650 -0.051356 0.477668
vt 0.375000 0.000000
vt 0.500000 0.000000
vt 0.625000 0.000000
vt 0.706830 0.113423
vt 0.625000 0.250000
vt 0.500000 0.250000
vt 0.375000 0.250000
vt 0.705206 0.374991
vt 0.625000 0.500000
vt 0.500000 0.500000
vt 0.375000 0.500000
vt 0.705228 0.624961
vt 0.625000 0.750000
vt 0.500000 0.750000
vt 0.375000 0.750000
vt 0.705260 0.874998
vt 0.625000 1.000000
vt 0.500000 1.000000
vt 0.375000 1.000000
vt 0.000000 0.000000
vt 0.000000 0.000000
vt 0.000000 0.000000
vt 0.021074 0.021074
vt 0.000000 0.000000
vt 0.000000 0.000000
vt 0.000000 0.000000
vt 0.000000 0.000000
vt 0.468892 0.187557
vt 0.000000 0.000000
vt 0.000000 0.000000
vt 0.000000 0.000000
vt 0.000000 0.000000
vt 0.000000 0.000000
vt 0.278953 0.223163
vt 0.000000 0.000000
vt 0.000000 0.000000
vt 0.025467 0.015280
vt 0.000000 0.000000
vt 0.000000 0.000000
vt 0.000000 0.000000
vt 0.399191 0.159676
vt 0.000000 0.000000
vt 0.000000 0.000000
vt 0.192870 0.231444
vt 0.000000 0.000000
vt 0.000000 0.000000
vt 0.000000 0.000000
vt 0.500079 0.200031
vt 0.000000 0.000000
vt 0.000000 0.000000
vt 0.000000 0.000000
vt 0.000000 0.000000
vt 0.000000 0.000000
vt 0.000000 0.000000
vt 0.000000 0.000000
vt 0.278951 0.334742
vt 0.000000 0.000000
vt 0.000000 0.000000
vt 0.000000 0.000000
vt 0.000000 0.000000
vt 0.000000 0.000000
vt 0.468879 0.000000
vt 0.000000 0.000000
vt 0.038903 0.038903
vt 0.000000 0.000000
vt 0.000000 0.000000
vt 0.000000 0.000000
vt 0.000000 0.000000
vt 0.399191 0.000000
vt 0.000000 0.000000
vt 0.192867 0.154293
vt 0.000000 0.000000
vt 0.000000 0.000000
vt 0.000000 0.000000
vt 0.499974 0.000000
vt 0.000000 0.000000
vt 0.000000 0.000000
vt 0.078182 0.046909
vt 0.000000 0.000000
vn -0.9836 0.1806 -0.0002
vn -0.0001 0.1395 -0.9902
vn 0.9876 0.1568 0.0004
vn 0.0005 0.1740 0.9848
vn 0.4777 0.6580 -0.5821
vn 0.9317 0.2869 -0.2229
vn -0.0954 0.2314 0.9682
vn -0.3631 0.6346 -0.6823
vn 0.3623 0.6351 -0.6823
vn 0.0954 0.2314 0.9682
vn -0.4781 0.6574 -0.5825
vn -0.0890 0.3264 -0.9410
vn -0.1288 0.2803 0.9512
vn -0.5825 0.6574 -0.4781
vn 0.0940 0.2821 -0.9548
vn 0.3644 0.6338 0.6823
vn -0.6823 0.6346 -0.3631
vn 0.4786 0.6563 0.5832
vn -0.9505 0.2842 0.1254
vn 0.5832 0.6563 0.4786
vn -0.9718 0.2157 -0.0957
vn 0.6823 0.6338 0.3644
vn -0.9681 0.2316 0.0954
vn 0.9468 0.3025 -0.1098
vn -0.9539 0.2645 -0.1420
vn 0.9621 0.2559 0.0948
vn -0.6823 0.6351 0.3621
vn 0.9621 0.2559 -0.0948
vn -0.5820 0.6581 0.4776
vn 0.9468 0.3025 0.1098
vn -0.4776 0.6581 0.5820
vn 0.6823 0.6351 -0.3623
vn -0.3621 0.6352 0.6823
vn -0.0940 0.2821 -0.9548
vn 0.5821 0.6580 -0.4777
vn 0.1288 0.2803 0.9512
vn 0.0890 0.3264 -0.9410
vn 0.0000 -1.0000 0.0000
vn -0.2508 0.2643 0.9313
vn 0.9313 0.2871 0.2243
vn 0.1931 0.3113 -0.9305
vn -0.9288 0.2368 -0.2851
vn 0.2521 0.2645 0.9309
vn -0.9314 0.2768 0.2364
vn -0.1936 0.3113 -0.9304
vn 0.0000 1.0000 -0.0000
usemtl None
s off
f 1/1/1 55/2/1 10/3/1 8/4/1 6/5/1 54/6/1 2/7/1
f 2/7/2 54/6/2 6/5/2 20/8/2 17/9/2 53/10/2 4/11/2
f 4/11/3 53/10/3 17/9/3 15/12/3 13/13/3 56/14/3 3/15/3
f 3/15/4 56/14/4 13/13/4 19/16/4 10/17/4 55/18/4 1/19/4
f 17/20/5 50/21/5 49/22/5
f 13/13/6 15/23/6 14/24/6
f 19/25/7 37/26/7 36/27/7
f 6/28/8 24/29/8 23/30/8 5/31/8
f 18/32/9 51/33/9 50/21/9 17/34/9
f 19/25/10 38/35/10 37/26/10
f 6/28/11 25/36/11 24/29/11
f 20/37/12 52/38/12 51/33/12 18/32/12
f 12/39/13 39/40/13 38/35/13 19/25/13
f 6/41/14 26/42/14 25/36/14
f 20/37/15 22/43/15 52/38/15
f 13/44/16 40/45/16 39/40/16 12/39/16
f 7/46/17 27/47/17 26/42/17 6/48/17
f 13/44/18 41/49/18 40/45/18
f 8/50/19 28/51/19 27/47/19 7/46/19
f 13/52/20 42/53/20 41/49/20
f 8/50/21 29/54/21 28/51/21
f 14/24/22 43/55/22 42/53/22 13/56/22
f 8/50/23 30/57/23 29/54/23
f 15/23/24 44/58/24 43/55/24 14/24/24
f 9/59/25 31/60/25 30/57/25 8/50/25
f 15/23/26 45/61/26 44/58/26
f 10/62/27 32/63/27 31/60/27 9/59/27
f 15/64/28 46/65/28 45/61/28
f 10/62/29 33/66/29 32/63/29
f 16/67/30 47/68/30 46/65/30 15/64/30
f 10/69/31 34/70/31 33/66/31
f 17/71/32 48/72/32 47/68/32 16/67/32
f 11/73/33 35/74/33 34/70/33 10/75/33
f 20/76/34 21/77/34 22/43/34
f 17/71/35 49/22/35 48/72/35
f 19/25/36 36/27/36 35/74/36 11/73/36
f 5/31/37 23/30/37 21/77/37 20/78/37
f 2/7/38 4/11/38 3/15/38 1/19/38
f 19/25/39 13/52/39 12/39/39
f 15/64/40 17/20/40 16/67/40
f 20/78/41 6/79/41 5/31/41
f 10/3/42 9/59/42 8/50/42
f 19/16/43 11/73/43 10/75/43
f 8/4/44 7/46/44 6/48/44
f 17/9/45 20/37/45 18/32/45
f 21/77/46 23/30/46 24/29/46 25/36/46 26/42/46 27/47/46 28/51/46 29/54/46 30/57/46 31/60/46 32/63/46 33/66/46 34/70/46 35/74/46 36/27/46 37/26/46 38/35/46 39/40/46 40/45/46 41/49/46 42/53/46 43/55/46 44/58/46 45/61/46 46/65/46 47/68/46 48/72/46 49/22/46 50/21/46 51/33/46 52/38/46 22/43/46
